<?xml version="1.0" encoding="UTF-8"?>
<!DOCTYPE svg PUBLIC "-//W3C//DTD SVG 1.1//EN" "http://www.w3.org/Graphics/SVG/1.1/DTD/svg11.dtd">
<!-- Creator: CorelDRAW -->
<svg xmlns="http://www.w3.org/2000/svg" xml:space="preserve" width="778px" height="300px" version="1.1" shape-rendering="geometricPrecision" text-rendering="geometricPrecision" image-rendering="optimizeQuality" fill-rule="evenodd" clip-rule="evenodd"
viewBox="0 0 9.73 3.75"
 xmlns:xlink="http://www.w3.org/1999/xlink"
 xmlns:xodm="http://www.corel.com/coreldraw/odm/2003">
 <defs>
    <linearGradient id="id0" gradientUnits="userSpaceOnUse" x1="5.6" y1="-0.53" x2="4.13" y2="3.55">
     <stop offset="0" stop-opacity="1" stop-color="#FF8378"/>
     <stop offset="0.129412" stop-opacity="1" stop-color="#FF4247"/>
     <stop offset="1" stop-opacity="1" stop-color="#FF0015"/>
    </linearGradient>
 </defs>
 <g id="Layer_x0020_1">
  <metadata id="CorelCorpID_0Corel-Layer"/>
  <g id="_1795215921408">
   <path fill="url(#id0)" d="M8.19 1.69c0.02,-0.07 0.07,-0.17 0.1,-0.24 0.04,-0.07 0.07,-0.15 0.11,-0.23 0.07,-0.14 0.14,-0.31 0.19,-0.47 0.03,0.2 0.16,0.89 0.16,0.94l-0.56 0zm1.29 0.03l0.22 1.07 0.01 -1.07 -0.23 0 -0.35 -1.65 -0.9 0c-0.03,0.03 -0.81,1.6 -0.82,1.65l2.07 0zm-5.28 0c0.15,1.07 -0.91,1.32 -1.51,1.1 -0.19,-0.07 -0.45,-0.27 -0.53,-0.4 0.02,-0.04 0.35,-0.51 0.37,-0.54 0.16,0.13 0.32,0.35 0.65,0.35 0.14,0 0.27,-0.07 0.29,-0.2 0.03,-0.18 -0.13,-0.23 -0.19,-0.31l0.92 0zm2.72 0.97l0.48 -0.96 -1.12 -0.01c0.03,0.08 0.61,0.94 0.64,0.97zm-6.9 -0.48l0 0.81 9.69 0 0 -0.2 -0.73 0c-0.06,-0.1 -0.07,-0.41 -0.12,-0.52l-0.95 0 -0.26 0.52 -0.64 0c-0.03,-0.02 -0.03,-0.03 -0.04,-0.05l-0.03 -0.04c-0.01,-0.01 -0.01,-0.01 -0.02,-0.01l-0.05 0.1 -0.73 0c-0.04,-0.08 -0.12,-0.19 -0.17,-0.27 -0.07,-0.11 -0.49,-0.77 -0.51,-0.82l0.81 -0.01 -0.19 -0.29 1.16 -1.18c0.04,-0.04 0.14,-0.13 0.16,-0.18l-0.92 0 -1.03 1.14 0.17 -1.14 -0.72 0 -0.26 1.65 0.72 0 -0.17 1.1 -0.71 0c0,-0.15 0.05,-0.4 0.08,-0.55 0.02,-0.17 0.07,-0.38 0.08,-0.55l-0.44 0c-0.07,-0.23 -0.16,-0.31 -0.31,-0.43 -0.25,-0.18 -0.67,-0.29 -0.6,-0.52 0.06,-0.19 0.31,-0.19 0.51,-0.07 0.1,0.05 0.19,0.13 0.23,0.15 0.02,-0.02 0.29,-0.48 0.3,-0.53 -0.04,-0.07 -0.24,-0.18 -0.34,-0.22 -0.44,-0.19 -0.99,-0.1 -1.26,0.25 -0.16,0.21 -0.27,0.59 -0.12,0.88 0.14,0.26 0.46,0.36 0.64,0.49l-1.21 0 -0.01 0.31 -1.4 0c-0.01,0.24 0.08,0.39 0.31,0.41 0.28,0.02 0.41,-0.16 0.51,-0.21 0.04,0.04 0.13,0.13 0.18,0.18 0.04,0.04 0.15,0.13 0.17,0.19 -0.16,0.11 -0.2,0.18 -0.44,0.24 -0.43,0.13 -1,0.06 -1.24,-0.37 -0.04,-0.08 -0.07,-0.21 -0.1,-0.26zm1.4 -0.56l-0.74 0c0.01,-0.14 0.18,-0.32 0.37,-0.34 0.21,-0.01 0.39,0.13 0.37,0.34zm-1.4 0.04l0 0.03 2.02 0c0.01,-0.25 -0.17,-0.52 -0.29,-0.62 -0.18,-0.16 -0.37,-0.24 -0.7,-0.24 -0.28,0.01 -0.52,0.11 -0.68,0.25 -0.13,0.11 -0.22,0.23 -0.29,0.4 -0.02,0.06 -0.04,0.15 -0.06,0.18z"/>
   <g>
    <path fill="black" fill-rule="nonzero" d="M0 3.64l0 -0.34 0.07 0 0 0.34 -0.07 0zm0.14 -0.24c0.01,0 0.02,0 0.03,-0.01 0.01,0 0.02,0 0.03,-0.01 0.01,0 0.03,0 0.04,0 0.01,0 0.02,-0.01 0.03,-0.01 0.03,0 0.05,0.01 0.06,0.01 0.02,0.01 0.03,0.02 0.04,0.03 0.01,0.02 0.01,0.04 0.01,0.06l0 0.17 -0.07 0 0 -0.16c0,-0.01 0,-0.01 0,-0.02 0,-0.01 0,-0.01 -0.01,-0.02 0,0 -0.01,0 -0.01,-0.01 -0.01,0 -0.02,0 -0.03,0 -0.01,0 -0.02,0 -0.03,0 -0.01,0 -0.01,0.01 -0.02,0.01l0 0.2 -0.07 0 0 -0.24zm0.43 0.25c-0.02,0 -0.03,0 -0.05,-0.01 -0.02,0 -0.03,-0.01 -0.04,-0.02 -0.02,-0.01 -0.02,-0.02 -0.03,-0.04 -0.01,-0.02 -0.01,-0.04 -0.01,-0.07 0,-0.04 0.01,-0.08 0.03,-0.1 0.02,-0.02 0.05,-0.04 0.09,-0.04 0.01,0 0.01,0 0.02,0.01 0.01,0 0.02,0 0.03,0 0.01,0.01 0.02,0.01 0.03,0.02l-0.02 0.02 0 -0.15 0.07 0 0 0.31c0,0.01 -0.01,0.02 -0.01,0.03 -0.01,0.01 -0.02,0.02 -0.03,0.02 -0.01,0.01 -0.02,0.01 -0.04,0.01 -0.01,0.01 -0.03,0.01 -0.04,0.01zm0 -0.06c0.02,0 0.03,0 0.04,0 0.01,-0.01 0.01,-0.01 0.01,-0.02l0 -0.13c-0.01,0 -0.01,-0.01 -0.02,-0.01 -0.01,0 -0.02,0 -0.03,0 -0.01,0 -0.03,0 -0.04,0.01 -0.01,0 -0.01,0.01 -0.02,0.02 0,0.02 -0.01,0.03 -0.01,0.05 0,0.02 0.01,0.03 0.01,0.04 0,0.01 0.01,0.02 0.02,0.03 0.01,0.01 0.03,0.01 0.04,0.01zm0.3 0.06c-0.04,0 -0.07,-0.01 -0.09,-0.04 -0.03,-0.02 -0.04,-0.06 -0.04,-0.1 0,-0.05 0.02,-0.08 0.04,-0.1 0.02,-0.03 0.05,-0.04 0.09,-0.04 0.03,0 0.05,0.01 0.07,0.02 0.02,0.01 0.04,0.02 0.05,0.04 0.01,0.02 0.01,0.05 0.01,0.08 0,0.04 -0.01,0.08 -0.03,0.1 -0.03,0.03 -0.06,0.04 -0.1,0.04zm0 -0.06c0.02,0 0.03,0 0.04,-0.01 0.01,0 0.01,-0.01 0.02,-0.03 0,-0.01 0.01,-0.02 0.01,-0.04 0,-0.02 -0.01,-0.04 -0.01,-0.05 -0.01,-0.01 -0.01,-0.02 -0.02,-0.02 -0.01,-0.01 -0.02,-0.01 -0.04,-0.01 -0.01,0 -0.03,0 -0.03,0.01 -0.01,0 -0.02,0.01 -0.02,0.02 -0.01,0.02 -0.01,0.03 -0.01,0.05 0,0.03 0,0.05 0.01,0.06 0.01,0.02 0.03,0.02 0.05,0.02zm0.19 -0.19c0,0 0.01,0 0.02,-0.01 0.01,0 0.02,0 0.04,-0.01 0.01,0 0.02,0 0.03,0 0.01,0 0.02,-0.01 0.03,-0.01 0.03,0 0.05,0.01 0.06,0.01 0.02,0.01 0.03,0.02 0.04,0.03 0.01,0.02 0.01,0.04 0.01,0.06l0 0.17 -0.06 0 0 -0.16c0,-0.01 0,-0.01 -0.01,-0.02 0,-0.01 0,-0.01 0,-0.02 -0.01,0 -0.01,0 -0.02,-0.01 -0.01,0 -0.02,0 -0.03,0 -0.01,0 -0.02,0 -0.02,0 -0.01,0 -0.02,0.01 -0.03,0.01l0 0.2 -0.06 0 0 -0.24zm0.42 0.25c-0.03,0 -0.05,-0.01 -0.07,-0.02 -0.02,-0.01 -0.03,-0.02 -0.04,-0.04 -0.01,-0.02 -0.02,-0.05 -0.02,-0.08 0,-0.04 0.01,-0.08 0.03,-0.1 0.02,-0.02 0.06,-0.04 0.1,-0.04 0.02,0 0.05,0.01 0.06,0.02 0.02,0.01 0.03,0.03 0.04,0.06 0.01,0.02 0.01,0.05 0.01,0.08l-0.2 0 0 -0.05 0.15 0 -0.01 0.02c0,-0.03 -0.01,-0.05 -0.02,-0.06 0,-0.01 -0.02,-0.01 -0.04,-0.01 -0.01,0 -0.02,0 -0.03,0 -0.01,0.01 -0.01,0.02 -0.02,0.03 0,0.01 0,0.03 0,0.05 0,0.03 0,0.05 0.01,0.06 0.02,0.02 0.04,0.02 0.06,0.02 0.01,0 0.02,0 0.03,0 0.01,0 0.02,-0.01 0.03,-0.01 0.01,0 0.02,0 0.02,-0.01l0 0.06c-0.01,0.01 -0.02,0.01 -0.04,0.01 -0.01,0.01 -0.03,0.01 -0.05,0.01zm0.25 0c-0.02,0 -0.04,0 -0.05,-0.01 -0.01,0 -0.03,-0.01 -0.04,-0.01l0 -0.06c0.01,0 0.02,0.01 0.03,0.01 0.01,0.01 0.01,0.01 0.02,0.01 0.02,0.01 0.03,0.01 0.04,0.01 0.01,0 0.02,0 0.03,-0.01 0,0 0.01,-0.01 0.01,-0.02 0,-0.01 0,-0.01 -0.01,-0.01 0,-0.01 -0.01,-0.01 -0.02,-0.01 -0.01,-0.01 -0.02,-0.01 -0.03,-0.01 0,-0.01 -0.01,-0.01 -0.02,-0.01 -0.01,0 -0.02,-0.01 -0.03,-0.02 0,0 -0.01,-0.01 -0.01,-0.02 -0.01,-0.01 -0.01,-0.02 -0.01,-0.03 0,-0.02 0,-0.03 0.01,-0.04 0.01,-0.01 0.01,-0.02 0.02,-0.03 0.01,0 0.03,-0.01 0.04,-0.01 0.01,0 0.02,0 0.03,0 0.02,0 0.04,0 0.05,0 0.01,0.01 0.02,0.01 0.03,0.02l0 0.05c-0.01,-0.01 -0.02,-0.01 -0.03,-0.02 -0.01,0 -0.03,0 -0.04,0 -0.01,0 -0.02,0 -0.03,0 -0.01,0.01 -0.01,0.01 -0.01,0.02 0,0.01 0,0.01 0,0.02 0.01,0 0.02,0.01 0.02,0.01 0.01,0 0.02,0 0.03,0.01 0,0 0.01,0 0.02,0 0.01,0.01 0.02,0.01 0.03,0.02 0.01,0 0.01,0.01 0.02,0.02 0,0.01 0.01,0.02 0.01,0.03 -0.01,0.02 -0.01,0.04 -0.02,0.05 -0.01,0.02 -0.02,0.02 -0.04,0.03 -0.02,0 -0.04,0.01 -0.05,0.01zm0.17 -0.01l0 -0.26 0.06 0 0 0.26 -0.06 0zm-0.01 -0.3l0 -0.05 0.07 0 0 0.05 -0.07 0zm0.24 0.31c-0.01,0 -0.03,0 -0.04,-0.01 -0.01,0 -0.02,0 -0.04,-0.01 -0.01,-0.01 -0.01,-0.02 -0.02,-0.03 -0.01,-0.01 -0.01,-0.02 -0.01,-0.04 0,-0.02 0,-0.03 0.01,-0.04 0.01,-0.01 0.02,-0.02 0.03,-0.03 0.02,-0.01 0.03,-0.01 0.05,-0.01 0.02,0 0.03,0 0.04,0 0.01,0.01 0.02,0.01 0.03,0.01 0.01,0.01 0.01,0.01 0.02,0.02l0 0.03c0,0 -0.01,-0.01 -0.02,-0.01 -0.02,0 -0.03,0 -0.04,0 -0.02,0 -0.03,0 -0.04,0 -0.01,0.01 -0.01,0.02 -0.01,0.03 0,0.01 0,0.02 0,0.02 0.01,0.01 0.01,0.01 0.02,0.02 0.01,0 0.02,0 0.03,0 0.01,0 0.03,0 0.04,0 0,-0.01 0.01,-0.01 0.01,-0.02l0 -0.1c0,-0.02 -0.01,-0.03 -0.02,-0.04 -0.01,-0.01 -0.02,-0.01 -0.04,-0.01 -0.02,0 -0.03,0 -0.05,0.01 -0.01,0 -0.02,0.01 -0.03,0.02l0 -0.06c0,-0.01 0.02,-0.01 0.04,-0.02 0.02,0 0.04,-0.01 0.06,-0.01 0.01,0 0.01,0.01 0.02,0.01 0.01,0 0.02,0 0.03,0.01 0.01,0 0.02,0 0.03,0.01 0.01,0.01 0.01,0.02 0.02,0.03 0,0.01 0,0.02 0,0.03l0 0.13c0,0.01 0,0.02 -0.01,0.03 -0.01,0.01 -0.03,0.02 -0.04,0.02 -0.02,0.01 -0.04,0.01 -0.07,0.01zm0.34 -0.01l0 -0.34 0.23 0 0 0.05 -0.16 0 0 0.09 0.14 0 0 0.06 -0.14 0 0 0.08 0.16 0 0 0.06 -0.23 0zm0.37 0l-0.07 0 0 -0.36 0.07 0 0 0.36zm0.18 0.01c-0.02,0 -0.05,-0.01 -0.07,-0.02 -0.01,-0.01 -0.03,-0.02 -0.04,-0.04 -0.01,-0.02 -0.02,-0.05 -0.02,-0.08 0,-0.04 0.01,-0.08 0.04,-0.1 0.02,-0.02 0.05,-0.04 0.09,-0.04 0.03,0 0.05,0.01 0.07,0.02 0.01,0.01 0.03,0.03 0.03,0.06 0.01,0.02 0.02,0.05 0.02,0.08l-0.2 0 -0.01 -0.05 0.15 0 -0.01 0.02c0,-0.03 0,-0.05 -0.01,-0.06 -0.01,-0.01 -0.02,-0.01 -0.04,-0.01 -0.02,0 -0.03,0 -0.03,0 -0.01,0.01 -0.02,0.02 -0.02,0.03 -0.01,0.01 -0.01,0.03 -0.01,0.05 0,0.03 0.01,0.05 0.02,0.06 0.01,0.02 0.03,0.02 0.06,0.02 0.01,0 0.02,0 0.03,0 0.01,0 0.01,-0.01 0.02,-0.01 0.01,0 0.02,0 0.02,-0.01l0 0.06c-0.01,0.01 -0.02,0.01 -0.04,0.01 -0.01,0.01 -0.03,0.01 -0.05,0.01zm0.29 0c-0.02,0 -0.03,-0.01 -0.05,-0.01 -0.01,-0.01 -0.03,-0.01 -0.04,-0.02 -0.01,-0.02 -0.02,-0.03 -0.03,-0.05 -0.01,-0.01 -0.01,-0.03 -0.01,-0.06 0,-0.02 0,-0.04 0.01,-0.06 0.01,-0.02 0.02,-0.03 0.03,-0.04 0.01,-0.01 0.02,-0.02 0.04,-0.03 0.02,0 0.03,-0.01 0.05,-0.01 0.01,0 0.03,0.01 0.04,0.01 0.02,0 0.03,0.01 0.04,0.01l0 0.06c-0.01,-0.01 -0.02,-0.01 -0.03,-0.01 -0.01,-0.01 -0.03,-0.01 -0.04,-0.01 -0.02,0 -0.04,0.01 -0.06,0.02 -0.01,0.01 -0.02,0.03 -0.02,0.06 0,0.03 0.01,0.05 0.02,0.06 0.02,0.01 0.04,0.02 0.06,0.02 0.02,0 0.03,0 0.04,-0.01 0.01,0 0.02,0 0.03,-0.01l0 0.06c-0.01,0 -0.02,0.01 -0.03,0.01 -0.02,0 -0.03,0.01 -0.05,0.01zm0.24 0c-0.03,0 -0.05,-0.01 -0.06,-0.02 -0.02,-0.01 -0.02,-0.03 -0.02,-0.06l0 -0.14 -0.04 0 0 -0.05 0.04 0 0 -0.07 0.06 0 0 0.07 0.06 0 0 0.05 -0.06 0 0 0.13c0,0.01 0.01,0.02 0.01,0.02 0,0.01 0.01,0.01 0.02,0.01 0.01,0 0.01,0 0.02,0 0,0 0.01,0 0.01,-0.01l0 0.06c0,0 -0.01,0 -0.02,0.01 -0.01,0 -0.01,0 -0.02,0zm0.1 -0.01l0 -0.23c0.01,-0.01 0.02,-0.01 0.03,-0.02 0.01,0 0.03,-0.01 0.04,-0.01 0.02,0 0.03,-0.01 0.05,-0.01 0.01,0 0.02,0.01 0.03,0.01 0.01,0 0.01,0 0.02,0l0 0.05c-0.01,0 -0.02,0 -0.03,0 0,0 -0.01,0 -0.02,0 -0.01,0 -0.02,0 -0.03,0 -0.01,0 -0.01,0 -0.02,0l0 0.21 -0.07 0zm0.32 0.01c-0.04,0 -0.08,-0.01 -0.1,-0.04 -0.02,-0.02 -0.03,-0.06 -0.03,-0.1 0,-0.05 0.01,-0.08 0.03,-0.1 0.03,-0.03 0.06,-0.04 0.1,-0.04 0.03,0 0.05,0.01 0.07,0.02 0.02,0.01 0.03,0.02 0.04,0.04 0.01,0.02 0.02,0.05 0.02,0.08 0,0.04 -0.01,0.08 -0.04,0.1 -0.02,0.03 -0.05,0.04 -0.09,0.04zm0 -0.06c0.01,0 0.03,0 0.04,-0.01 0.01,0 0.01,-0.01 0.02,-0.03 0,-0.01 0,-0.02 0,-0.04 0,-0.02 0,-0.04 0,-0.05 -0.01,-0.01 -0.02,-0.02 -0.02,-0.02 -0.01,-0.01 -0.03,-0.01 -0.04,-0.01 -0.02,0 -0.03,0 -0.04,0.01 -0.01,0 -0.01,0.01 -0.02,0.02 0,0.02 0,0.03 0,0.05 0,0.03 0,0.05 0.01,0.06 0.01,0.02 0.03,0.02 0.05,0.02zm0.19 -0.19c0,0 0.01,0 0.02,-0.01 0.01,0 0.02,0 0.03,-0.01 0.01,0 0.03,0 0.04,0 0.01,0 0.02,-0.01 0.03,-0.01 0.03,0 0.05,0.01 0.06,0.01 0.02,0.01 0.03,0.02 0.04,0.03 0.01,0.02 0.01,0.04 0.01,0.06l0 0.17 -0.07 0 0 -0.16c0,-0.01 0,-0.01 0,-0.02 0,-0.01 0,-0.01 -0.01,-0.02 0,0 -0.01,0 -0.01,-0.01 -0.01,0 -0.02,0 -0.03,0 -0.01,0 -0.02,0 -0.03,0 -0.01,0 -0.01,0.01 -0.02,0.01l0 0.2 -0.06 0 0 -0.24zm0.3 0.24l0 -0.26 0.07 0 0 0.26 -0.07 0zm0 -0.3l0 -0.05 0.07 0 0 0.05 -0.07 0zm0.26 0.31c-0.02,0 -0.03,-0.01 -0.05,-0.01 -0.02,-0.01 -0.03,-0.01 -0.04,-0.02 -0.01,-0.02 -0.02,-0.03 -0.03,-0.05 -0.01,-0.01 -0.01,-0.03 -0.01,-0.06 0,-0.02 0,-0.04 0.01,-0.06 0.01,-0.02 0.01,-0.03 0.03,-0.04 0.01,-0.01 0.02,-0.02 0.04,-0.03 0.01,0 0.03,-0.01 0.05,-0.01 0.01,0 0.03,0.01 0.04,0.01 0.02,0 0.03,0.01 0.04,0.01l0 0.06c-0.01,-0.01 -0.02,-0.01 -0.04,-0.01 -0.01,-0.01 -0.02,-0.01 -0.03,-0.01 -0.03,0 -0.04,0.01 -0.06,0.02 -0.01,0.01 -0.02,0.03 -0.02,0.06 0,0.03 0.01,0.05 0.02,0.06 0.01,0.01 0.03,0.02 0.06,0.02 0.01,0 0.03,0 0.04,-0.01 0.01,0 0.02,0 0.03,-0.01l0 0.06c-0.01,0 -0.02,0.01 -0.04,0.01 -0.01,0 -0.02,0.01 -0.04,0.01zm0.43 0c-0.05,0 -0.09,-0.02 -0.12,-0.05 -0.03,-0.03 -0.04,-0.07 -0.04,-0.13 0,-0.06 0.01,-0.1 0.04,-0.13 0.03,-0.03 0.07,-0.05 0.12,-0.05 0.02,0 0.04,0 0.06,0.01 0.02,0 0.03,0.01 0.05,0.02l0 0.06c-0.02,-0.01 -0.03,-0.02 -0.05,-0.03 -0.02,0 -0.03,0 -0.05,0 -0.02,0 -0.04,0 -0.05,0.01 -0.02,0.01 -0.03,0.02 -0.04,0.04 -0.01,0.02 -0.01,0.04 -0.01,0.07 0,0.03 0,0.05 0.01,0.07 0.01,0.02 0.02,0.03 0.04,0.04 0.01,0.01 0.03,0.01 0.06,0.01 0.01,0 0.02,0 0.04,-0.01 0.02,0 0.03,-0.01 0.05,-0.02l0 0.06c-0.01,0.01 -0.02,0.01 -0.03,0.01 -0.01,0.01 -0.03,0.01 -0.04,0.01 -0.01,0 -0.02,0.01 -0.04,0.01zm0.29 0c-0.03,0 -0.05,-0.01 -0.07,-0.02 -0.02,-0.01 -0.03,-0.02 -0.04,-0.04 -0.01,-0.02 -0.02,-0.05 -0.02,-0.08 0,-0.04 0.01,-0.08 0.03,-0.1 0.02,-0.02 0.05,-0.04 0.09,-0.04 0.03,0 0.06,0.01 0.07,0.02 0.02,0.01 0.03,0.03 0.04,0.06 0.01,0.02 0.01,0.05 0.01,0.08l-0.2 0 0 -0.05 0.15 0 -0.01 0.02c0,-0.03 -0.01,-0.05 -0.02,-0.06 -0.01,-0.01 -0.02,-0.01 -0.04,-0.01 -0.01,0 -0.02,0 -0.03,0 -0.01,0.01 -0.01,0.02 -0.02,0.03 0,0.01 -0.01,0.03 -0.01,0.05 0,0.03 0.01,0.05 0.02,0.06 0.02,0.02 0.04,0.02 0.06,0.02 0.01,0 0.02,0 0.03,0 0.01,0 0.02,-0.01 0.03,-0.01 0.01,0 0.01,0 0.02,-0.01l0 0.06c-0.01,0.01 -0.03,0.01 -0.04,0.01 -0.02,0.01 -0.03,0.01 -0.05,0.01zm0.17 -0.01l0 -0.23c0,-0.01 0.01,-0.01 0.03,-0.02 0.01,0 0.02,-0.01 0.04,-0.01 0.01,0 0.03,-0.01 0.05,-0.01 0.01,0 0.02,0.01 0.03,0.01 0,0 0.01,0 0.01,0l0 0.05c0,0 -0.01,0 -0.02,0 -0.01,0 -0.02,0 -0.03,0 -0.01,0 -0.01,0 -0.02,0 -0.01,0 -0.02,0 -0.03,0l0 0.21 -0.06 0zm0.31 0.01c-0.03,0 -0.05,-0.01 -0.06,-0.02 -0.01,-0.01 -0.02,-0.03 -0.02,-0.06l0 -0.14 -0.04 0 0 -0.05 0.04 0 0 -0.07 0.07 0 0 0.07 0.06 0 0 0.05 -0.06 0 0 0.13c0,0.01 0,0.02 0,0.02 0.01,0.01 0.01,0.01 0.02,0.01 0.01,0 0.02,0 0.02,0 0.01,0 0.01,0 0.02,-0.01l0 0.06c-0.01,0 -0.02,0 -0.03,0.01 0,0 -0.01,0 -0.02,0zm0.11 -0.01l0 -0.26 0.06 0 0 0.26 -0.06 0zm0 -0.3l0 -0.05 0.07 0 0 0.05 -0.07 0zm0.16 0.3l0 -0.21 -0.04 0 0 -0.05 0.04 0 0 -0.01c0,-0.01 0,-0.03 0,-0.04 0.01,-0.01 0.01,-0.02 0.02,-0.03 0,-0.01 0.01,-0.01 0.02,-0.02 0.01,0 0.02,0 0.03,-0.01 0,0 0.01,0 0.02,0 0.01,0 0.01,0 0.02,0 0,0 0.01,0 0.01,0.01l0 0.05c0,0 0,0 -0.01,0 0,0 0,0 -0.01,0 0,0 -0.01,0 -0.01,0 -0.01,0 -0.01,0 -0.02,0 0,0 0,0.01 0,0.01 -0.01,0.01 -0.01,0.02 -0.01,0.03l0 0.01 0.06 0 0 0.05 -0.06 0 0 0.21 -0.06 0zm0.17 0l0 -0.26 0.07 0 0 0.26 -0.07 0zm0 -0.3l0 -0.05 0.07 0 0 0.05 -0.07 0zm0.26 0.31c-0.02,0 -0.04,-0.01 -0.05,-0.01 -0.02,-0.01 -0.03,-0.01 -0.04,-0.02 -0.02,-0.02 -0.03,-0.03 -0.03,-0.05 -0.01,-0.01 -0.01,-0.03 -0.01,-0.06 0,-0.02 0,-0.04 0.01,-0.06 0,-0.02 0.01,-0.03 0.03,-0.04 0.01,-0.01 0.02,-0.02 0.04,-0.03 0.01,0 0.03,-0.01 0.05,-0.01 0.01,0 0.03,0.01 0.04,0.01 0.01,0 0.03,0.01 0.04,0.01l0 0.06c-0.01,-0.01 -0.02,-0.01 -0.04,-0.01 -0.01,-0.01 -0.02,-0.01 -0.03,-0.01 -0.03,0 -0.05,0.01 -0.06,0.02 -0.01,0.01 -0.02,0.03 -0.02,0.06 0,0.03 0.01,0.05 0.02,0.06 0.01,0.01 0.03,0.02 0.06,0.02 0.01,0 0.03,0 0.04,-0.01 0.01,0 0.02,0 0.03,-0.01l0 0.06c-0.01,0 -0.03,0.01 -0.04,0.01 -0.01,0 -0.03,0.01 -0.04,0.01zm0.23 0c-0.01,0 -0.02,0 -0.04,-0.01 -0.01,0 -0.02,0 -0.03,-0.01 -0.01,-0.01 -0.02,-0.02 -0.03,-0.03 0,-0.01 -0.01,-0.02 -0.01,-0.04 0,-0.02 0.01,-0.03 0.01,-0.04 0.01,-0.01 0.02,-0.02 0.04,-0.03 0.01,-0.01 0.03,-0.01 0.05,-0.01 0.01,0 0.02,0 0.03,0 0.01,0.01 0.02,0.01 0.03,0.01 0.01,0.01 0.02,0.01 0.02,0.02l0.01 0.03c-0.01,0 -0.02,-0.01 -0.03,-0.01 -0.01,0 -0.02,0 -0.04,0 -0.02,0 -0.03,0 -0.04,0 -0.01,0.01 -0.01,0.02 -0.01,0.03 0,0.01 0,0.02 0.01,0.02 0,0.01 0.01,0.01 0.01,0.02 0.01,0 0.02,0 0.03,0 0.02,0 0.03,0 0.04,0 0.01,-0.01 0.01,-0.01 0.01,-0.02l0 -0.1c0,-0.02 0,-0.03 -0.01,-0.04 -0.02,-0.01 -0.03,-0.01 -0.05,-0.01 -0.01,0 -0.03,0 -0.04,0.01 -0.02,0 -0.03,0.01 -0.04,0.02l0 -0.06c0.01,-0.01 0.02,-0.01 0.04,-0.02 0.02,0 0.04,-0.01 0.06,-0.01 0.01,0 0.02,0.01 0.03,0.01 0.01,0 0.02,0 0.03,0.01 0.01,0 0.01,0 0.02,0.01 0.01,0.01 0.01,0.02 0.02,0.03 0,0.01 0.01,0.02 0.01,0.03l0 0.13c0,0.01 -0.01,0.02 -0.02,0.03 -0.01,0.01 -0.02,0.02 -0.04,0.02 -0.02,0.01 -0.04,0.01 -0.07,0.01zm0.3 0c-0.03,0 -0.05,-0.01 -0.06,-0.02 -0.02,-0.01 -0.03,-0.03 -0.03,-0.06l0 -0.14 -0.04 0 0 -0.05 0.04 0 0 -0.07 0.07 0 0 0.07 0.06 0 0 0.05 -0.06 0 0 0.13c0,0.01 0,0.02 0.01,0.02 0,0.01 0.01,0.01 0.02,0.01 0,0 0.01,0 0.02,0 0,0 0.01,0 0.01,-0.01l0 0.06c0,0 -0.01,0 -0.02,0.01 -0.01,0 -0.02,0 -0.02,0zm0.22 0c-0.03,0 -0.05,-0.01 -0.07,-0.02 -0.02,-0.01 -0.04,-0.02 -0.05,-0.04 -0.01,-0.02 -0.01,-0.05 -0.01,-0.08 0,-0.04 0.01,-0.08 0.03,-0.1 0.02,-0.02 0.05,-0.04 0.09,-0.04 0.03,0 0.05,0.01 0.07,0.02 0.02,0.01 0.03,0.03 0.04,0.06 0.01,0.02 0.01,0.05 0.01,0.08l-0.2 0 0 -0.05 0.15 0 -0.01 0.02c0,-0.03 -0.01,-0.05 -0.02,-0.06 -0.01,-0.01 -0.02,-0.01 -0.04,-0.01 -0.01,0 -0.02,0 -0.03,0 -0.01,0.01 -0.02,0.02 -0.02,0.03 0,0.01 -0.01,0.03 -0.01,0.05 0,0.03 0.01,0.05 0.02,0.06 0.01,0.02 0.03,0.02 0.06,0.02 0.01,0 0.02,0 0.03,0 0.01,0 0.02,-0.01 0.03,-0.01 0.01,0 0.01,0 0.02,-0.01l0 0.06c-0.01,0.01 -0.03,0.01 -0.04,0.01 -0.02,0.01 -0.03,0.01 -0.05,0.01zm0.43 0c-0.05,0 -0.08,-0.01 -0.1,-0.04 -0.02,-0.02 -0.03,-0.06 -0.03,-0.1 0,-0.05 0.01,-0.08 0.03,-0.1 0.02,-0.03 0.05,-0.04 0.1,-0.04 0.02,0 0.05,0.01 0.07,0.02 0.02,0.01 0.03,0.02 0.04,0.04 0.01,0.02 0.01,0.05 0.01,0.08 0,0.04 -0.01,0.08 -0.03,0.1 -0.02,0.03 -0.05,0.04 -0.09,0.04zm0 -0.06c0.01,0 0.02,0 0.03,-0.01 0.01,0 0.02,-0.01 0.02,-0.03 0.01,-0.01 0.01,-0.02 0.01,-0.04 0,-0.02 0,-0.04 -0.01,-0.05 0,-0.01 -0.01,-0.02 -0.02,-0.02 -0.01,-0.01 -0.02,-0.01 -0.03,-0.01 -0.02,0 -0.03,0 -0.04,0.01 -0.01,0 -0.02,0.01 -0.02,0.02 -0.01,0.02 -0.01,0.03 -0.01,0.05 0,0.03 0.01,0.05 0.02,0.06 0.01,0.02 0.02,0.02 0.05,0.02zm0.2 0.05l0 -0.21 -0.04 0 0 -0.05 0.04 0 0 -0.01c0,-0.01 0,-0.03 0.01,-0.04 0,-0.01 0.01,-0.02 0.01,-0.03 0.01,-0.01 0.02,-0.01 0.02,-0.02 0.01,0 0.02,0 0.03,-0.01 0.01,0 0.02,0 0.03,0 0,0 0.01,0 0.01,0 0.01,0 0.01,0 0.02,0.01l0 0.05c0,0 -0.01,0 -0.01,0 0,0 -0.01,0 -0.02,0 0,0 0,0 -0.01,0 0,0 -0.01,0 -0.01,0 0,0 -0.01,0.01 -0.01,0.01 0,0.01 0,0.02 0,0.03l0 0.01 0.06 0 0 0.05 -0.06 0 0 0.21 -0.07 0zm0.48 0.01c-0.04,0 -0.07,-0.01 -0.09,-0.02 -0.03,-0.02 -0.04,-0.04 -0.06,-0.06 -0.01,-0.03 -0.02,-0.06 -0.02,-0.1 0,-0.06 0.02,-0.1 0.05,-0.13 0.02,-0.03 0.06,-0.05 0.12,-0.05 0.03,0 0.06,0.01 0.08,0.02 0.03,0.01 0.05,0.03 0.06,0.06 0.01,0.03 0.02,0.06 0.02,0.1 0,0.06 -0.01,0.1 -0.04,0.13 -0.03,0.03 -0.07,0.05 -0.12,0.05zm0 -0.06c0.02,0 0.03,-0.01 0.05,-0.01 0.01,-0.01 0.02,-0.02 0.03,-0.04 0,-0.02 0.01,-0.04 0.01,-0.07 0,-0.03 -0.01,-0.05 -0.01,-0.07 -0.01,-0.02 -0.02,-0.03 -0.03,-0.04 -0.02,-0.01 -0.03,-0.01 -0.05,-0.01 -0.02,0 -0.04,0 -0.05,0.01 -0.02,0.01 -0.03,0.02 -0.03,0.04 -0.01,0.02 -0.01,0.04 -0.01,0.07 0,0.03 0,0.05 0.01,0.07 0,0.02 0.01,0.03 0.03,0.04 0.01,0 0.03,0.01 0.05,0.01zm0.22 0.05l0 -0.23c0,-0.01 0.01,-0.01 0.03,-0.02 0.01,0 0.02,-0.01 0.04,-0.01 0.01,0 0.03,-0.01 0.05,-0.01 0.01,0 0.02,0.01 0.03,0.01 0,0 0.01,0 0.01,0l0 0.05c0,0 -0.01,0 -0.02,0 -0.01,0 -0.02,0 -0.03,0 -0.01,0 -0.01,0 -0.02,0 -0.01,0 -0.02,0 -0.02,0l0 0.21 -0.07 0zm0.21 0l0 -0.26 0.07 0 0 0.26 -0.07 0zm0 -0.3l0 -0.05 0.07 0 0 0.05 -0.07 0z"/>
    <path fill="black" fill-rule="nonzero" d="M9.15 3.65c-0.02,0 -0.04,-0.01 -0.06,-0.02 -0.02,-0.01 -0.03,-0.02 -0.04,-0.04 -0.01,-0.02 -0.01,-0.04 -0.01,-0.07 0,-0.03 0,-0.05 0.01,-0.07 0.01,-0.02 0.02,-0.04 0.03,-0.05 0.01,-0.01 0.03,-0.01 0.04,-0.02 0.02,0 0.04,-0.01 0.06,-0.01 0.02,0 0.04,0.01 0.05,0.01 0.02,0.01 0.03,0.02 0.04,0.03 0.01,0.01 0.01,0.02 0.01,0.03l0 0.21c0,0.01 0,0.03 0,0.04 -0.01,0.01 -0.02,0.02 -0.03,0.03 -0.01,0.01 -0.02,0.02 -0.04,0.02 -0.01,0.01 -0.03,0.01 -0.05,0.01 -0.02,0 -0.04,0 -0.06,0 -0.01,-0.01 -0.02,-0.01 -0.03,-0.01l0 -0.06c0,0 0.01,0 0.02,0 0.01,0.01 0.02,0.01 0.03,0.01 0.01,0 0.02,0 0.03,0 0.02,0 0.04,0 0.05,0 0,-0.01 0.01,-0.01 0.01,-0.02 0.01,-0.01 0.01,-0.02 0.01,-0.03l0 -0.04 0.01 0.01c0,0.01 -0.01,0.02 -0.02,0.02 -0.01,0.01 -0.01,0.01 -0.02,0.01 -0.01,0.01 -0.03,0.01 -0.04,0.01zm0.02 -0.05c0.01,0 0.02,0 0.03,-0.01 0,0 0.01,0 0.02,-0.01l0 -0.12c0,-0.01 0,-0.02 -0.01,-0.02 0,-0.01 -0.01,-0.01 -0.01,-0.01 -0.01,0 -0.02,0 -0.03,0 -0.01,0 -0.03,0 -0.04,0.01 -0.01,0.01 -0.02,0.02 -0.02,0.03 0,0.01 -0.01,0.03 -0.01,0.05 0,0.02 0.01,0.04 0.02,0.05 0.01,0.02 0.03,0.03 0.05,0.03zm0.18 0.04l0 -0.26 0.07 0 0 0.26 -0.07 0zm0 -0.3l0 -0.05 0.07 0 0 0.05 -0.07 0zm0.14 0.06c0.01,0 0.02,0 0.03,-0.01 0.01,0 0.02,0 0.03,-0.01 0.01,0 0.02,0 0.04,0 0.01,0 0.02,-0.01 0.03,-0.01 0.02,0 0.04,0.01 0.06,0.01 0.02,0.01 0.03,0.02 0.04,0.03 0,0.02 0.01,0.04 0.01,0.06l0 0.17 -0.07 0 0 -0.16c0,-0.01 0,-0.01 0,-0.02 0,-0.01 0,-0.01 -0.01,-0.02 0,0 -0.01,0 -0.02,-0.01 0,0 -0.01,0 -0.02,0 -0.01,0 -0.02,0 -0.03,0 -0.01,0 -0.02,0.01 -0.02,0.01l0 0.2 -0.07 0 0 -0.24z"/>
   </g>
  </g>
 </g>
</svg>
